<?xml version="1.0" encoding="UTF-8"?>
<svg id="Calque_1" data-name="Calque 1" xmlns="http://www.w3.org/2000/svg" viewBox="0 0 287.04 280.8">
  <defs>
    <style>
      .cls-1 {
        fill: #03045e;
      }

      .cls-2 {
        fill: #8fc500;
      }
    </style>
  </defs>
  <path class="cls-2" d="M129.17,137.2h0c-7.24,0-13.11-5.87-13.11-13.11s5.87-13.11,13.11-13.11,13.11,5.87,13.11,13.11-5.87,13.11-13.11,13.11"/>
  <path class="cls-1" d="M20.93,156.61h14.01c4.27,0,7.68,1.28,10.21,3.84,2.53,2.56,3.8,5.98,3.8,10.25v6.92c0,4.28-1.27,7.69-3.8,10.25-2.53,2.56-5.93,3.84-10.21,3.84h-5.06v19.49c0,2.47-2,4.47-4.47,4.47s-4.47-2-4.47-4.47v-54.59ZM34.51,183.27c1.74,0,3.09-.48,4.05-1.43.96-.96,1.43-2.31,1.43-4.05v-7.25c0-1.74-.48-3.09-1.43-4.05-.96-.96-2.31-1.44-4.05-1.44h-4.64v18.23h4.64Z"/>
  <path class="cls-1" d="M64.44,156.61h13.19c2.33,0,4.22,1.89,4.22,4.22s-1.89,4.22-4.22,4.22h-12.24v16.45h8.86c2.33,0,4.22,1.89,4.22,4.22h0c0,2.33-1.89,4.22-4.22,4.22h-8.86v17.3h12.24c2.33,0,4.22,1.89,4.22,4.22s-1.89,4.22-4.22,4.22h-13.19c-4.41,0-7.99-3.58-7.99-7.99v-43.08c0-4.41,3.58-7.99,7.99-7.99"/>
  <path class="cls-1" d="M108.56,212.38l-5.62-21.09h-4.64v19.95c0,2.45-1.99,4.43-4.44,4.43h-.07c-2.45,0-4.43-1.99-4.43-4.43v-47.33c0-4.03,3.27-7.3,7.3-7.3h6.71c4.27,0,7.68,1.28,10.21,3.84,2.53,2.56,3.8,5.98,3.8,10.25v6.5c0,2.7-.54,5.09-1.6,7.17-1.07,2.08-2.59,3.71-4.56,4.89l5.9,20.76c.81,2.83-1.32,5.65-4.27,5.65-2.01,0-3.77-1.35-4.29-3.29M98.3,182.85h4.64c1.74,0,3.09-.48,4.05-1.44.96-.96,1.43-2.3,1.43-4.05v-6.83c0-1.74-.48-3.09-1.43-4.05-.96-.96-2.31-1.44-4.05-1.44h-4.64v17.8Z"/>
  <path class="cls-1" d="M130.95,214.66c-2.19-1.24-3.9-2.95-5.11-5.15-1.21-2.19-1.81-4.7-1.81-7.51,0,0-.35-1.72,0-2.11,1.45-1.61,7-2.37,8.61-.93.41.37,0,2.19,0,2.19,0,2.14.51,3.83,1.52,5.06,1.01,1.24,2.42,1.86,4.22,1.86s3.13-.51,4.18-1.52c1.04-1.01,1.56-2.39,1.56-4.13,0-1.91-.55-3.74-1.64-5.49-1.1-1.74-3.28-4.16-6.54-7.26-4.39-4.16-7.38-7.62-8.99-10.38-1.6-2.75-2.4-5.76-2.4-9.03,0-4.44,1.21-7.97,3.63-10.59,2.42-2.62,5.74-3.92,9.96-3.92s7.54,1.32,9.96,3.97c2.42,2.64,3.63,6.19,3.63,10.63,0,0,.25,1.24,0,1.52-1.45,1.61-7,2.37-8.61.93-.31-.28,0-1.69,0-1.69,0-2.25-.42-3.97-1.27-5.15-.84-1.18-2.05-1.77-3.63-1.77s-2.79.48-3.63,1.43c-.84.96-1.27,2.36-1.27,4.22s.56,3.64,1.69,5.36c1.12,1.72,3.29,4.18,6.5,7.38,4.39,4.39,7.38,7.92,8.99,10.59,1.6,2.67,2.4,5.61,2.4,8.82,0,2.81-.61,5.32-1.81,7.51-1.21,2.19-2.91,3.91-5.1,5.15-2.2,1.24-4.7,1.86-7.51,1.86s-5.32-.62-7.51-1.86"/>
  <path class="cls-1" d="M163.69,212.59c-2.64-2.62-3.97-6.06-3.97-10.34v-32.23c0-4.27,1.32-7.72,3.97-10.33,2.64-2.62,6.1-3.92,10.38-3.92s7.73,1.31,10.38,3.92c2.64,2.62,3.97,6.06,3.97,10.33v32.23c0,4.28-1.32,7.72-3.97,10.34-2.64,2.62-6.1,3.92-10.38,3.92s-7.73-1.31-10.38-3.92M178.03,206.56c.96-1.01,1.44-2.45,1.44-4.3v-32.23c0-1.86-.48-3.29-1.44-4.3s-2.28-1.52-3.96-1.52-3.01.51-3.97,1.52c-.96,1.01-1.43,2.45-1.43,4.3v32.23c0,1.86.48,3.29,1.43,4.3.96,1.01,2.28,1.52,3.97,1.52s3.01-.51,3.96-1.52"/>
  <path class="cls-1" d="M202.88,156.61h.32c2.43,0,4.57,1.61,5.24,3.94l5.93,20.63c.71,2.46,4.33,1.95,4.33-.61v-19.58c0-2.42,1.96-4.39,4.39-4.39s4.39,1.96,4.39,4.39v49.23c0,3.01-2.44,5.45-5.45,5.45-2.38,0-4.49-1.55-5.2-3.82l-6.3-20.16c-.75-2.41-4.32-1.87-4.32.66v18.94c0,2.42-1.96,4.39-4.39,4.39s-4.39-1.96-4.39-4.39v-49.23c0-3.01,2.44-5.45,5.45-5.45"/>
  <path class="cls-1" d="M254.89,202.6h-9.62l-1.39,9.34c-.32,2.15-2.16,3.74-4.33,3.74-2.7,0-4.76-2.43-4.32-5.1l7.96-48.06c.57-3.41,3.51-5.91,6.97-5.91s6.4,2.5,6.97,5.91l7.96,48.06c.44,2.67-1.62,5.1-4.32,5.1h-.17c-2.17,0-4.01-1.59-4.33-3.74l-1.39-9.34ZM253.19,190.4l-1.95-13.3c-.19-1.32-2.11-1.32-2.3,0l-1.95,13.3c-.28,1.89,1.19,3.59,3.1,3.59s3.38-1.7,3.1-3.59"/>
  <path class="cls-2" d="M65.79,234.17v-1.56c0-.58-.15-1.03-.45-1.35-.3-.32-.71-.48-1.24-.48s-.94.16-1.24.48c-.3.32-.45.77-.45,1.35v10.12c0,.58.15,1.03.45,1.35.3.32.71.48,1.24.48s.94-.16,1.24-.48c.3-.32.45-.77.45-1.35v-3.28h-1.7v-2.65h3.17c.74,0,1.34.6,1.34,1.34v4.6c0,1.34-.41,2.42-1.24,3.24s-1.92,1.23-3.26,1.23-2.43-.41-3.26-1.23c-.83-.82-1.25-1.9-1.25-3.24v-10.12c0-1.34.42-2.42,1.25-3.25.83-.82,1.91-1.23,3.26-1.23s2.43.41,3.26,1.23c.83.82,1.24,1.9,1.24,3.25v1.56h-2.81Z"/>
  <rect class="cls-2" x="151.35" y="228.39" width="2.81" height="18.54"/>
  <path class="cls-2" d="M177.41,245.99c-.81-.8-1.22-1.85-1.22-3.14v-14.46h2.81v14.46c0,.53.15.94.44,1.24.29.3.67.45,1.13.45s.83-.15,1.12-.45c.29-.3.44-.71.44-1.24v-14.46h2.75v14.46c0,1.29-.4,2.33-1.19,3.14-.79.8-1.84,1.21-3.12,1.21s-2.34-.4-3.15-1.21"/>
  <path class="cls-2" d="M208.44,246.61c-.69-.39-1.22-.93-1.6-1.62-.38-.69-.57-1.48-.57-2.36,0,0-.11-.54,0-.66.45-.51,2.2-.74,2.7-.29.13.11,0,.69,0,.69,0,.67.16,1.2.48,1.59.32.39.76.58,1.32.58s.98-.16,1.31-.48c.33-.32.49-.75.49-1.3,0-.6-.17-1.17-.52-1.72-.34-.55-1.03-1.31-2.05-2.28-1.38-1.31-2.32-2.39-2.82-3.26-.5-.86-.76-1.81-.76-2.83,0-1.39.38-2.5,1.14-3.32.76-.82,1.8-1.23,3.12-1.23s2.36.41,3.12,1.24c.76.83,1.14,1.94,1.14,3.34,0,0,.08.39,0,.48-.45.51-2.2.75-2.7.29-.1-.09,0-.53,0-.53,0-.71-.13-1.24-.4-1.62-.26-.37-.64-.55-1.14-.55s-.87.15-1.14.45c-.27.3-.4.74-.4,1.32s.18,1.14.53,1.68,1.03,1.31,2.04,2.32c1.38,1.38,2.32,2.48,2.82,3.32.5.84.75,1.76.75,2.77,0,.88-.19,1.67-.57,2.36-.38.69-.91,1.23-1.6,1.62-.69.39-1.47.58-2.36.58s-1.67-.19-2.36-.58"/>
  <path class="cls-2" d="M92.9,228.39h4.14c.73,0,1.32.59,1.32,1.32s-.59,1.32-1.32,1.32h-3.84v5.16h2.78c.73,0,1.32.59,1.32,1.32h0c0,.73-.59,1.32-1.32,1.32h-2.78v5.43h3.84c.73,0,1.32.59,1.32,1.32s-.59,1.32-1.32,1.32h-4.14c-1.38,0-2.51-1.12-2.51-2.51v-13.52c0-1.38,1.12-2.51,2.51-2.51"/>
  <path class="cls-2" d="M121.49,228.39h.1c.76,0,1.43.51,1.64,1.24l1.86,6.48c.22.77,1.36.61,1.36-.19v-6.14c0-.76.62-1.38,1.38-1.38s1.38.62,1.38,1.38v15.45c0,.94-.76,1.71-1.71,1.71-.75,0-1.41-.49-1.63-1.2l-1.98-6.33c-.24-.76-1.35-.59-1.35.21v5.94c0,.76-.62,1.38-1.38,1.38s-1.38-.62-1.38-1.38v-15.45c0-.94.77-1.71,1.71-1.71"/>
  <path class="cls-1" d="M129.93,131.74c-1.69,0-3.05-1.37-3.05-3.05v-43.23c0-9.47,7.7-17.17,17.17-17.17,6.93,0,12.58-5.64,12.58-12.58v-10.89c0-7.71-6.27-13.98-13.98-13.98h-12.71c-1.69,0-3.05-1.37-3.05-3.05s1.37-3.05,3.05-3.05h12.71c11.08,0,20.09,9.01,20.09,20.09v10.89c0,10.3-8.38,18.69-18.68,18.69-6.1,0-11.06,4.96-11.06,11.06v43.23c0,1.69-1.37,3.05-3.05,3.05"/>
  <path class="cls-1" d="M154.83,131.4h-7.56c-4.87,0-8.83-3.96-8.83-8.83v-32.23c0-4.87,3.96-8.83,8.83-8.83h13.16c1.69,0,3.05,1.37,3.05,3.05s-1.37,3.06-3.05,3.06h-13.16c-1.5,0-2.73,1.22-2.73,2.73v32.23c0,1.5,1.22,2.73,2.73,2.73h7.56c1.5,0,2.73-1.22,2.73-2.73v-7.21c0-1.5-1.22-2.73-2.73-2.73h-3.78c-1.69,0-3.05-1.37-3.05-3.05s1.37-3.05,3.05-3.05h3.78c4.87,0,8.84,3.96,8.84,8.83v7.21c0,4.87-3.96,8.83-8.84,8.83"/>
</svg>